<svg data-v-423bf9ae="" xmlns="http://www.w3.org/2000/svg" viewBox="0 0 355.4657161209926 207" class="iconAboveSlogan"><!----><!----><!----><g data-v-423bf9ae="" id="ea828908-36e7-49cc-9815-59db750cde6d" fill="black" transform="matrix(5.272407679843658,0,0,5.272407679843658,-6.115997738129067,91.23045181385717)"><path d="M8.63 5.46C7.72 5.46 6.97 5.88 6.51 6.56C6.06 5.90 5.34 5.46 4.55 5.46C3.85 5.46 3.26 5.79 2.82 6.32L2.82 5.60L1.16 5.60L1.16 12.60L2.82 12.60L2.82 8.33C2.82 7.65 3.31 7.00 4.06 7.00C4.78 7.00 5.32 7.60 5.32 8.33L5.32 12.60L6.98 12.60L6.98 8.33C6.98 7.65 7.47 7.00 8.23 7.00C8.94 7.00 9.49 7.60 9.49 8.33L9.49 12.60L11.15 12.60L11.15 8.16C11.15 6.62 10.12 5.46 8.63 5.46ZM20.28 9.07C20.25 6.97 18.71 5.46 16.59 5.46C14.46 5.46 12.85 7.00 12.85 9.10C12.85 11.20 14.44 12.74 16.61 12.74C18.41 12.74 19.76 11.67 20.16 10.15L18.50 10.15C18.20 10.89 17.50 11.36 16.61 11.36C15.44 11.36 14.61 10.54 14.53 9.36L20.27 9.36ZM16.61 6.86C17.52 6.86 18.17 7.37 18.46 8.17L14.67 8.17C14.98 7.39 15.66 6.86 16.61 6.86ZM29.52 5.46C28.61 5.46 27.86 5.88 27.41 6.56C26.95 5.90 26.23 5.46 25.45 5.46C24.75 5.46 24.15 5.79 23.71 6.32L23.71 5.60L22.05 5.60L22.05 12.60L23.71 12.60L23.71 8.33C23.71 7.65 24.20 7.00 24.96 7.00C25.67 7.00 26.22 7.60 26.22 8.33L26.22 12.60L27.88 12.60L27.88 8.33C27.88 7.65 28.37 7.00 29.12 7.00C29.84 7.00 30.38 7.60 30.38 8.33L30.38 12.60L32.04 12.60L32.04 8.16C32.04 6.62 31.01 5.46 29.52 5.46ZM39.64 5.60L39.64 6.37C39.03 5.81 38.20 5.46 37.29 5.46C35.32 5.46 33.74 7.07 33.74 9.10C33.74 11.13 35.32 12.74 37.29 12.74C38.22 12.74 39.04 12.39 39.66 11.81L39.66 13.02C39.66 14.35 38.73 15.31 37.47 15.31C36.49 15.31 35.70 14.72 35.42 13.84L33.90 14.47C34.42 15.91 35.77 16.84 37.47 16.84C39.74 16.84 41.32 15.24 41.32 12.97L41.32 5.60ZM37.56 11.20C36.38 11.20 35.46 10.27 35.46 9.10C35.46 7.93 36.38 7.00 37.56 7.00C38.73 7.00 39.67 7.93 39.67 9.10C39.67 10.27 38.73 11.20 37.56 11.20ZM47.44 5.46C46.53 5.46 45.78 5.88 45.29 6.56L45.29 5.60L43.63 5.60L43.63 12.60L45.29 12.60L45.29 9.05C45.29 7.82 46.20 7.00 47.41 7.00C47.64 7.00 47.83 7.04 48.00 7.07L48.00 5.51C47.83 5.48 47.64 5.46 47.44 5.46ZM56.81 11.24C56.47 11.24 56.16 11.06 56.16 10.45L56.16 5.60L54.50 5.60L54.50 6.34C53.90 5.79 53.13 5.46 52.24 5.46C50.26 5.46 48.69 7.07 48.69 9.10C48.69 11.13 50.26 12.74 52.24 12.74C53.25 12.74 54.15 12.29 54.74 11.57C55.09 12.27 55.77 12.74 56.63 12.74C56.84 12.74 57.03 12.69 57.19 12.60L57.19 11.24ZM52.45 11.20C51.28 11.20 50.35 10.27 50.35 9.10C50.35 7.93 51.28 7.00 52.45 7.00C53.60 7.00 54.55 7.93 54.55 9.10C54.55 10.27 53.60 11.20 52.45 11.20ZM66.06 5.46C65.15 5.46 64.40 5.88 63.95 6.56C63.49 5.90 62.77 5.46 61.98 5.46C61.29 5.46 60.69 5.79 60.25 6.32L60.25 5.60L58.59 5.60L58.59 12.60L60.25 12.60L60.25 8.33C60.25 7.65 60.74 7.00 61.50 7.00C62.21 7.00 62.76 7.60 62.76 8.33L62.76 12.60L64.42 12.60L64.42 8.33C64.42 7.65 64.91 7.00 65.66 7.00C66.38 7.00 66.92 7.60 66.92 8.33L66.92 12.60L68.58 12.60L68.58 8.16C68.58 6.62 67.55 5.46 66.06 5.46Z"></path></g><!----><g data-v-423bf9ae="" id="328e3c64-d275-4963-bd3b-166f6f4cdbb5" transform="matrix(1.0904524909125435,0,0,1.0904524909125435,123.96720071626065,-0.5922307208802167)" stroke="none" fill="black"><path d="M94.078 41.762c1.787-13.531-3.702-29.744-19.914-37.02-12.819-5.753-35.445-5.743-47.379 5.136-10.408 9.49-12.754 22.959-12.754 22.959s-1.074 5.004-1.074 6.665c0 1.588 1.788 2.213 1.583 3.029-.204.816-2.207 3.151-3.738 5.703-1.53 2.551-5.443 8.222-5.443 9.752s.916 2.097 2.753 2.709c1.836.612 3.265 1.122 3.571 1.836s-.875 2.754-.938 4.209c-.054 1.241.4 1.379 1.33 1.74 1.153.449 2.923.507 2.923.507s-3.943.745-3.551 2.359c.406 1.675 2.781 2.015 2.992 3.327.105.662-2.008 4.053-1.73 7.354.363 4.308 4.444 6.236 10.914 5.198 6.167-.99 9.067-1.91 9.86 1.491.499 2.141.446 5.753 1.364 9.836.038.163.077.338.114.51h47.327c-2.024-3.689-4.685-9.61-4.685-17.144 0-5.169.514-12.842 4.221-16.923 4.647-5.116 10.819-12.361 12.254-23.233zM74.537 52.486s-.619 6.769-5.588 7.639c-4.255.744-7.08-3.354-7.08-3.354l-1.398 6.613h-2.979s-2.701-9.966-4.564-11.644c-1.864-1.677-4.752-2.142-4.752-2.142s-3.912-.28-6.428-2.794c-2.515-2.516-.186-5.59-.186-5.59s-3.167.187-9.595-1.21c-6.427-1.398-4.471-5.497-4.471-5.497s-1.677.28-3.074-1.49c-.993-1.258-1.717-4.335.093-7.918 1.622-3.209 4.469-4.323 4.469-4.323s-1.054-1.338 1.169-3.207c1.161-.976 3.211-.947 3.211-.947s.501-2.151 3.587-3.546c3.496-1.579 5.822-.273 5.822-.273s.934-2.046 3.635-2.978c2.702-.931 5.4.649 5.4.649s1.828-1.653 5.182-1.653c3.353 0 4.601 1.747 4.601 1.747s2.02-1.038 4.471-.187c2.316.805 2.986 3.05 2.986 3.05s1.673-1.187 4-.255c2.329.932 3.262 3.447 3.262 3.447s1.605-.235 3.202 1.183c1.185 1.054.802 3.009.802 3.009s1.976.656 3.158 3.021c1.101 2.201-.456 4.059-.456 4.059s3.26 2.422 3.726 8.756c.568 7.728-4.377 9.222-4.377 9.222s.978 2.452-.746 5.123c-2.346 3.635-7.082 1.49-7.082 1.49z"></path></g><!----><g data-v-423bf9ae="" id="2bca93d7-315b-4ecc-840f-b174929cbf20" fill="black" transform="matrix(1.11805112393695,0,0,1.11805112393695,44.61772066927918,215.08103145165003)"><path d="M8.69 13.29L8.60 13.29L8.41 13.29C8.33 13.29 8.25 13.27 8.16 13.27L5.19 9.53C5.11 9.42 5.00 9.32 4.89 9.25C5.32 9.21 5.71 9.11 6.06 8.96C6.41 8.81 6.69 8.61 6.94 8.37C7.18 8.13 7.38 7.85 7.50 7.55C7.63 7.24 7.70 6.89 7.70 6.51C7.70 5.66 7.42 5.03 6.86 4.58C6.30 4.14 5.45 3.92 4.30 3.92L1.89 3.92L0.71 3.92L0.71 4.19C0.71 4.34 0.80 4.42 0.98 4.44L1.12 4.44C1.19 4.44 1.29 4.45 1.43 4.45C1.57 4.45 1.72 4.47 1.89 4.47L1.89 13.26C1.72 13.26 1.57 13.27 1.43 13.27C1.29 13.27 1.19 13.29 1.12 13.29L0.98 13.29C0.80 13.30 0.70 13.38 0.70 13.54L0.70 13.82L1.89 13.82L2.60 13.82L3.78 13.82L3.78 13.54C3.78 13.38 3.68 13.30 3.50 13.29L3.36 13.29C3.29 13.29 3.19 13.27 3.05 13.27C2.91 13.27 2.77 13.26 2.60 13.26L2.60 9.34L3.78 9.34C3.98 9.34 4.12 9.35 4.20 9.39C4.28 9.44 4.37 9.52 4.45 9.62L7.63 13.64C7.69 13.71 7.73 13.75 7.78 13.78C7.84 13.80 7.91 13.82 7.98 13.82L8.05 13.82L8.60 13.82L8.96 13.82L8.96 13.54C8.96 13.38 8.88 13.30 8.69 13.29ZM4.20 8.81L2.60 8.81L2.60 4.48L4.30 4.48C5.18 4.48 5.85 4.66 6.31 5.00C6.78 5.33 7 5.87 7 6.57C7 6.92 6.94 7.21 6.82 7.49C6.69 7.77 6.50 7.99 6.26 8.19C6.02 8.39 5.73 8.55 5.38 8.65C5.03 8.75 4.63 8.81 4.20 8.81ZM20.15 6.73C19.66 6.73 19.21 6.83 18.82 7.00C18.42 7.17 18.10 7.41 17.84 7.71C17.57 8.02 17.36 8.39 17.22 8.81C17.08 9.23 17.00 9.69 17.00 10.19C17.00 10.78 17.08 11.31 17.23 11.77C17.39 12.24 17.60 12.61 17.88 12.94C18.16 13.26 18.49 13.50 18.89 13.66C19.28 13.83 19.71 13.90 20.19 13.90C20.45 13.90 20.72 13.89 20.97 13.83C21.22 13.78 21.48 13.71 21.70 13.62C21.92 13.54 22.13 13.44 22.32 13.31C22.50 13.19 22.65 13.06 22.76 12.92L22.58 12.70C22.55 12.66 22.50 12.63 22.44 12.63C22.40 12.63 22.32 12.66 22.22 12.74C22.12 12.82 21.98 12.91 21.80 13.01C21.63 13.10 21.41 13.17 21.15 13.26C20.90 13.34 20.59 13.38 20.24 13.38C19.85 13.38 19.50 13.31 19.18 13.17C18.86 13.03 18.59 12.84 18.37 12.57C18.14 12.31 17.98 11.97 17.85 11.58C17.72 11.19 17.67 10.71 17.67 10.19L17.67 10.07L22.69 10.07C22.76 10.07 22.81 10.05 22.83 10.01C22.86 9.97 22.89 9.90 22.89 9.80C22.89 9.31 22.82 8.88 22.68 8.50C22.54 8.12 22.36 7.78 22.11 7.53C21.87 7.28 21.57 7.08 21.24 6.94C20.90 6.80 20.54 6.73 20.15 6.73ZM20.16 7.24C20.48 7.24 20.76 7.29 21.03 7.41C21.29 7.52 21.52 7.67 21.70 7.88C21.88 8.09 22.04 8.33 22.13 8.62C22.23 8.92 22.29 9.25 22.29 9.63L17.70 9.63C17.74 9.27 17.82 8.93 17.95 8.64C18.07 8.34 18.24 8.09 18.45 7.88C18.66 7.67 18.91 7.52 19.19 7.41C19.47 7.29 19.80 7.24 20.16 7.24ZM33.00 5.32C33.08 5.08 33.18 4.90 33.32 4.75C33.46 4.59 33.63 4.48 33.82 4.41C34.02 4.34 34.23 4.31 34.45 4.31C34.59 4.31 34.72 4.33 34.82 4.34C34.92 4.35 34.99 4.35 35.04 4.35C35.13 4.35 35.18 4.33 35.18 4.26L35.20 3.93C35.08 3.89 34.94 3.85 34.80 3.82C34.65 3.79 34.51 3.79 34.37 3.79C34.05 3.79 33.77 3.84 33.50 3.93C33.24 4.03 33.01 4.20 32.83 4.40C32.65 4.59 32.49 4.84 32.40 5.14C32.30 5.43 32.24 5.80 32.24 6.19L32.24 7.07L31.05 7.07L31.05 7.35C31.05 7.46 31.11 7.50 31.25 7.52L32.24 7.59L32.24 13.26C32.07 13.26 31.93 13.27 31.79 13.27C31.65 13.27 31.56 13.29 31.49 13.29L31.36 13.29C31.18 13.30 31.08 13.38 31.08 13.54L31.08 13.82L32.26 13.82L32.90 13.82L34.08 13.82L34.08 13.54C34.08 13.38 33.98 13.30 33.80 13.29L33.67 13.29C33.60 13.29 33.50 13.27 33.36 13.27C33.22 13.27 33.07 13.26 32.90 13.26L32.90 7.57L35.14 7.57L35.14 7.07L32.89 7.07L32.89 6.22C32.89 5.87 32.91 5.56 33.00 5.32ZM48.01 6.80C47.82 6.76 47.64 6.73 47.43 6.73C46.89 6.73 46.42 6.89 46.05 7.21C45.67 7.53 45.37 7.98 45.15 8.54L45.09 7.07C45.09 6.99 45.07 6.93 45.04 6.90C45.01 6.87 44.95 6.86 44.87 6.86L44.52 6.86L44.52 6.86L43.51 6.86L43.51 7.13C43.51 7.31 43.61 7.36 43.78 7.38C43.86 7.38 43.95 7.38 44.52 7.41L44.52 13.26C43.95 13.29 43.86 13.29 43.78 13.29C43.61 13.30 43.51 13.36 43.51 13.54L43.51 13.82L44.52 13.82L45.18 13.82L45.18 13.82L46.19 13.82L46.19 13.54C46.19 13.36 46.09 13.30 45.92 13.29C45.84 13.29 45.75 13.29 45.18 13.26L45.18 9.30C45.39 8.68 45.67 8.20 46.00 7.88C46.34 7.56 46.77 7.39 47.31 7.39C47.45 7.39 47.57 7.41 47.68 7.42C47.80 7.43 47.91 7.45 47.98 7.48C48.06 7.50 48.10 7.53 48.16 7.55C48.22 7.56 48.26 7.57 48.29 7.57C48.37 7.57 48.41 7.53 48.43 7.46L48.51 7.00C48.36 6.92 48.19 6.85 48.01 6.80ZM59.46 6.73C58.97 6.73 58.52 6.83 58.13 7.00C57.74 7.17 57.41 7.41 57.15 7.71C56.88 8.02 56.67 8.39 56.53 8.81C56.39 9.23 56.31 9.69 56.31 10.19C56.31 10.78 56.39 11.31 56.55 11.77C56.70 12.24 56.91 12.61 57.19 12.94C57.47 13.26 57.81 13.50 58.20 13.66C58.59 13.83 59.02 13.90 59.50 13.90C59.77 13.90 60.03 13.89 60.28 13.83C60.54 13.78 60.79 13.71 61.01 13.62C61.24 13.54 61.45 13.44 61.63 13.31C61.81 13.19 61.96 13.06 62.08 12.92L61.89 12.70C61.87 12.66 61.81 12.63 61.75 12.63C61.71 12.63 61.63 12.66 61.53 12.74C61.43 12.82 61.29 12.91 61.11 13.01C60.94 13.10 60.72 13.17 60.47 13.26C60.21 13.34 59.91 13.38 59.56 13.38C59.16 13.38 58.81 13.31 58.49 13.17C58.17 13.03 57.90 12.84 57.68 12.57C57.46 12.31 57.29 11.97 57.16 11.58C57.04 11.19 56.98 10.71 56.98 10.19L56.98 10.07L62.01 10.07C62.08 10.07 62.12 10.05 62.15 10.01C62.17 9.97 62.20 9.90 62.20 9.80C62.20 9.31 62.13 8.88 61.99 8.50C61.85 8.12 61.67 7.78 61.42 7.53C61.18 7.28 60.89 7.08 60.55 6.94C60.21 6.80 59.85 6.73 59.46 6.73ZM59.47 7.24C59.79 7.24 60.07 7.29 60.34 7.41C60.61 7.52 60.83 7.67 61.01 7.88C61.19 8.09 61.35 8.33 61.45 8.62C61.54 8.92 61.60 9.25 61.60 9.63L57.01 9.63C57.05 9.27 57.13 8.93 57.26 8.64C57.39 8.34 57.55 8.09 57.76 7.88C57.97 7.67 58.23 7.52 58.51 7.41C58.79 7.29 59.11 7.24 59.47 7.24ZM74.98 11.06C74.87 10.86 74.73 10.71 74.55 10.57C74.37 10.43 74.16 10.32 73.93 10.23C73.71 10.15 73.46 10.05 73.22 9.98C72.98 9.91 72.74 9.83 72.51 9.76C72.28 9.69 72.07 9.59 71.89 9.49C71.71 9.39 71.57 9.27 71.46 9.13C71.34 8.99 71.29 8.81 71.29 8.58C71.29 8.40 71.32 8.23 71.40 8.08C71.48 7.92 71.60 7.77 71.75 7.64C71.89 7.52 72.07 7.43 72.28 7.36C72.49 7.29 72.72 7.25 72.97 7.25C73.33 7.25 73.70 7.31 74.07 7.43C74.09 7.60 74.10 7.77 74.12 7.92C74.13 8.08 74.13 8.19 74.14 8.27C74.16 8.36 74.16 8.43 74.16 8.44C74.17 8.67 74.27 8.78 74.47 8.78L74.80 8.78L74.80 7.11C74.07 6.86 73.46 6.75 72.95 6.75C72.60 6.75 72.28 6.80 72.00 6.90C71.72 7.00 71.47 7.14 71.27 7.31C71.08 7.48 70.92 7.69 70.81 7.91C70.70 8.13 70.66 8.37 70.66 8.62C70.66 8.92 70.71 9.16 70.83 9.35C70.94 9.55 71.08 9.70 71.26 9.84C71.44 9.98 71.64 10.09 71.88 10.18C72.10 10.26 72.34 10.35 72.59 10.42C72.83 10.49 73.07 10.57 73.30 10.64C73.53 10.71 73.74 10.81 73.92 10.92C74.10 11.03 74.26 11.16 74.37 11.31C74.48 11.47 74.54 11.65 74.54 11.89C74.54 12.10 74.49 12.29 74.42 12.49C74.34 12.68 74.23 12.84 74.07 12.98C73.92 13.12 73.74 13.23 73.51 13.31C73.29 13.40 73.04 13.44 72.74 13.44C72.21 13.44 71.76 13.37 71.39 13.22C71.37 13.03 71.36 12.87 71.34 12.71C71.33 12.56 71.33 12.43 71.32 12.35C71.30 12.26 71.30 12.19 71.30 12.18C71.29 11.96 71.19 11.84 70.99 11.84L70.66 11.84L70.66 13.54C71.33 13.79 72.02 13.93 72.72 13.93C73.11 13.93 73.44 13.87 73.75 13.76C74.06 13.65 74.31 13.50 74.52 13.30C74.73 13.10 74.89 12.89 75.00 12.63C75.11 12.36 75.17 12.08 75.17 11.77C75.17 11.49 75.10 11.26 74.98 11.06ZM90.62 13.29L90.54 13.29L90.44 13.29C90.40 13.29 90.33 13.27 90.23 13.27C90.13 13.27 90.01 13.26 89.88 13.26L89.88 9.37C89.88 8.96 89.84 8.60 89.74 8.27C89.64 7.95 89.50 7.67 89.31 7.45C89.11 7.22 88.87 7.06 88.58 6.93C88.28 6.80 87.95 6.75 87.57 6.75C87.05 6.75 86.59 6.86 86.17 7.10C85.76 7.34 85.40 7.66 85.08 8.05L85.08 3.64L84.41 3.64L83.40 3.64L83.40 3.91C83.40 4.06 83.50 4.14 83.68 4.16L83.75 4.16C83.78 4.16 83.82 4.17 83.86 4.17L84.07 4.17C84.17 4.17 84.28 4.19 84.41 4.19L84.41 13.26C84.25 13.26 84.11 13.29 84.00 13.29L83.76 13.29L83.68 13.29C83.50 13.30 83.40 13.38 83.40 13.54L83.40 13.82L84.41 13.82L85.08 13.82L86.09 13.82L86.09 13.54C86.09 13.38 85.99 13.30 85.81 13.29L85.74 13.29L85.62 13.29C85.58 13.29 85.51 13.27 85.41 13.27C85.32 13.27 85.20 13.26 85.08 13.26L85.08 8.60C85.39 8.19 85.74 7.87 86.13 7.63C86.52 7.39 86.94 7.28 87.40 7.28C88.02 7.28 88.48 7.46 88.77 7.83C89.07 8.20 89.22 8.71 89.22 9.37L89.22 13.82L89.88 13.82L90.89 13.82L90.89 13.54C90.89 13.38 90.80 13.30 90.62 13.29ZM116.03 6.86L115.51 6.86L114.11 6.86L114.11 7.13C114.11 7.28 114.21 7.36 114.39 7.38L114.46 7.38C114.49 7.38 114.52 7.39 114.56 7.39L114.77 7.39C114.87 7.39 114.98 7.41 115.11 7.41L112.97 12.45L112.88 12.66C112.85 12.73 112.84 12.80 112.81 12.87C112.80 12.80 112.76 12.73 112.74 12.66C112.71 12.59 112.70 12.52 112.67 12.45L110.50 7.41C110.66 7.41 110.80 7.39 110.91 7.39C111.02 7.39 111.10 7.38 111.13 7.38L111.22 7.38C111.40 7.36 111.50 7.28 111.50 7.13L111.50 6.86L110.08 6.86L110.08 6.86L109.52 6.86L109.06 6.86L109.06 7.13C109.06 7.28 109.16 7.36 109.34 7.38C109.34 7.38 109.48 7.38 109.76 7.39L112.48 13.57L111.24 16.28L111.72 16.28C111.80 16.28 111.87 16.25 111.92 16.21C111.96 16.17 112.00 16.13 112.03 16.06L115.79 7.39L116.05 7.39C116.13 7.39 116.17 7.38 116.20 7.38L116.27 7.38C116.45 7.36 116.55 7.28 116.55 7.13L116.55 6.86ZM127.43 6.73C126.92 6.73 126.48 6.83 126.08 7.00C125.69 7.17 125.36 7.41 125.08 7.71C124.80 8.02 124.60 8.40 124.46 8.85C124.32 9.30 124.24 9.79 124.24 10.33C124.24 10.88 124.32 11.37 124.46 11.80C124.60 12.24 124.80 12.63 125.08 12.94C125.36 13.24 125.69 13.48 126.08 13.65C126.48 13.82 126.92 13.90 127.43 13.90C127.93 13.90 128.37 13.82 128.76 13.65C129.15 13.48 129.49 13.24 129.75 12.94C130.02 12.63 130.24 12.24 130.38 11.80C130.52 11.37 130.59 10.88 130.59 10.33C130.59 9.79 130.52 9.30 130.38 8.85C130.24 8.40 130.02 8.02 129.75 7.71C129.49 7.41 129.15 7.17 128.76 7.00C128.37 6.83 127.93 6.73 127.43 6.73ZM127.43 13.38C127.01 13.38 126.64 13.31 126.34 13.17C126.03 13.03 125.76 12.82 125.55 12.56C125.34 12.29 125.20 11.97 125.09 11.59C124.98 11.21 124.94 10.79 124.94 10.33C124.94 9.87 124.98 9.45 125.09 9.07C125.20 8.69 125.34 8.37 125.55 8.11C125.76 7.84 126.03 7.62 126.34 7.48C126.64 7.34 127.01 7.27 127.43 7.27C127.85 7.27 128.20 7.34 128.51 7.48C128.81 7.62 129.08 7.84 129.29 8.11C129.50 8.37 129.65 8.69 129.75 9.07C129.85 9.45 129.91 9.87 129.91 10.33C129.91 10.79 129.85 11.21 129.75 11.59C129.65 11.97 129.50 12.29 129.29 12.56C129.08 12.82 128.81 13.03 128.51 13.17C128.20 13.31 127.85 13.38 127.43 13.38ZM145.63 13.29L145.56 13.29L145.45 13.29C145.40 13.29 145.33 13.27 145.24 13.27C145.14 13.27 145.03 13.26 144.90 13.26L144.90 6.85L144.23 6.86L143.22 6.86L143.22 7.13C143.22 7.28 143.32 7.36 143.50 7.38L143.57 7.38C143.60 7.38 143.64 7.39 143.68 7.39L143.89 7.39C143.99 7.39 144.10 7.41 144.23 7.41L144.23 12.08C143.92 12.49 143.56 12.81 143.16 13.05C142.77 13.27 142.35 13.40 141.90 13.40C141.29 13.40 140.83 13.20 140.53 12.84C140.24 12.46 140.08 11.96 140.08 11.30L140.08 6.85L139.41 6.86L138.40 6.86L138.40 7.13C138.40 7.28 138.50 7.36 138.68 7.38L138.75 7.38C138.78 7.38 138.82 7.39 138.87 7.39L139.08 7.39C139.17 7.39 139.29 7.41 139.41 7.41L139.41 11.30C139.41 11.70 139.47 12.07 139.57 12.39C139.66 12.71 139.80 12.99 140 13.22C140.20 13.44 140.42 13.62 140.71 13.75C141.01 13.87 141.34 13.93 141.74 13.93C142.25 13.93 142.73 13.80 143.15 13.57C143.57 13.33 143.95 13.01 144.27 12.60L144.33 13.64C144.33 13.76 144.41 13.82 144.54 13.82L144.90 13.82L145.91 13.82L145.91 13.54C145.91 13.38 145.81 13.30 145.63 13.29ZM158.72 6.80C158.54 6.76 158.35 6.73 158.14 6.73C157.60 6.73 157.14 6.89 156.76 7.21C156.38 7.53 156.09 7.98 155.86 8.54L155.81 7.07C155.81 6.99 155.78 6.93 155.75 6.90C155.72 6.87 155.67 6.86 155.58 6.86L155.23 6.86L155.23 6.86L154.22 6.86L154.22 7.13C154.22 7.31 154.32 7.36 154.49 7.38C154.57 7.38 154.66 7.38 155.23 7.41L155.23 13.26C154.66 13.29 154.57 13.29 154.49 13.29C154.32 13.30 154.22 13.36 154.22 13.54L154.22 13.82L155.23 13.82L155.89 13.82L155.89 13.82L156.90 13.82L156.90 13.54C156.90 13.36 156.80 13.30 156.63 13.29C156.55 13.29 156.46 13.29 155.89 13.26L155.89 9.30C156.10 8.68 156.38 8.20 156.72 7.88C157.05 7.56 157.49 7.39 158.02 7.39C158.16 7.39 158.28 7.41 158.40 7.42C158.51 7.43 158.62 7.45 158.69 7.48C158.77 7.50 158.82 7.53 158.87 7.55C158.93 7.56 158.97 7.57 159.00 7.57C159.08 7.57 159.12 7.53 159.14 7.46L159.22 7.00C159.07 6.92 158.90 6.85 158.72 6.80ZM184.79 9.52C184.37 9.11 183.76 8.86 182.98 8.75C183.30 8.67 183.58 8.55 183.83 8.40C184.09 8.25 184.31 8.08 184.48 7.87C184.65 7.66 184.79 7.43 184.87 7.20C184.95 6.96 185.01 6.71 185.01 6.44C185.01 6.05 184.93 5.68 184.80 5.38C184.67 5.07 184.46 4.80 184.20 4.58C183.93 4.37 183.60 4.20 183.18 4.09C182.76 3.98 182.27 3.92 181.71 3.92L178.86 3.92L177.67 3.92L177.67 4.19C177.67 4.34 177.77 4.42 177.95 4.44L178.09 4.44C178.16 4.44 178.26 4.45 178.40 4.45C178.54 4.45 178.70 4.47 178.86 4.47L178.86 13.26C178.70 13.26 178.54 13.27 178.40 13.27C178.26 13.27 178.16 13.29 178.09 13.29L177.95 13.29C177.77 13.30 177.69 13.38 177.69 13.54L177.69 13.82L178.86 13.82L182.07 13.82C182.60 13.82 183.06 13.76 183.48 13.64C183.90 13.51 184.25 13.34 184.53 13.10C184.81 12.87 185.04 12.59 185.19 12.25C185.35 11.91 185.42 11.54 185.42 11.12C185.42 10.46 185.21 9.93 184.79 9.52ZM179.58 4.48L181.71 4.48C182.59 4.48 183.25 4.66 183.67 5.00C184.09 5.35 184.30 5.84 184.30 6.51C184.30 6.76 184.25 7.03 184.16 7.27C184.06 7.50 183.90 7.71 183.69 7.91C183.48 8.11 183.22 8.26 182.90 8.37C182.57 8.48 182.18 8.55 181.72 8.55L179.58 8.55ZM184.03 12.68C183.58 13.06 182.92 13.24 182.06 13.24L179.58 13.24L179.58 9.07L182.07 9.07C182.49 9.07 182.85 9.11 183.18 9.21C183.50 9.31 183.78 9.45 184.00 9.62C184.23 9.80 184.39 10.00 184.52 10.25C184.63 10.50 184.70 10.79 184.70 11.10C184.70 11.79 184.48 12.31 184.03 12.68ZM198.13 6.80C197.95 6.76 197.76 6.73 197.55 6.73C197.01 6.73 196.55 6.89 196.17 7.21C195.79 7.53 195.50 7.98 195.27 8.54L195.22 7.07C195.22 6.99 195.19 6.93 195.16 6.90C195.13 6.87 195.08 6.86 194.99 6.86L194.64 6.86L194.64 6.86L193.63 6.86L193.63 7.13C193.63 7.31 193.73 7.36 193.90 7.38C193.98 7.38 194.07 7.38 194.64 7.41L194.64 13.26C194.07 13.29 193.98 13.29 193.90 13.29C193.73 13.30 193.63 13.36 193.63 13.54L193.63 13.82L194.64 13.82L195.30 13.82L195.30 13.82L196.31 13.82L196.31 13.54C196.31 13.36 196.21 13.30 196.04 13.29C195.96 13.29 195.87 13.29 195.30 13.26L195.30 9.30C195.51 8.68 195.79 8.20 196.13 7.88C196.46 7.56 196.90 7.39 197.43 7.39C197.57 7.39 197.69 7.41 197.81 7.42C197.92 7.43 198.03 7.45 198.10 7.48C198.18 7.50 198.23 7.53 198.28 7.55C198.34 7.56 198.38 7.57 198.41 7.57C198.49 7.57 198.53 7.53 198.55 7.46L198.63 7.00C198.48 6.92 198.31 6.85 198.13 6.80ZM212.10 13.29L212.00 13.29L211.78 13.29C211.68 13.29 211.57 13.27 211.46 13.27L211.46 9.28C211.46 8.89 211.41 8.55 211.32 8.23C211.22 7.91 211.08 7.64 210.90 7.42C210.71 7.20 210.48 7.03 210.20 6.92C209.92 6.79 209.59 6.73 209.22 6.73C208.71 6.73 208.26 6.83 207.86 7.01C207.45 7.20 207.07 7.48 206.71 7.84L206.82 8.05C206.86 8.13 206.93 8.18 207.03 8.18C207.10 8.18 207.20 8.12 207.30 8.02C207.40 7.92 207.54 7.84 207.70 7.73C207.87 7.62 208.05 7.52 208.29 7.42C208.53 7.32 208.81 7.28 209.15 7.28C209.69 7.28 210.11 7.45 210.39 7.80C210.67 8.15 210.80 8.64 210.80 9.28L210.80 10.01C210.01 10.02 209.34 10.09 208.78 10.21C208.22 10.32 207.76 10.47 207.40 10.65C207.03 10.84 206.78 11.06 206.61 11.31C206.44 11.56 206.36 11.83 206.36 12.12C206.36 12.45 206.42 12.73 206.51 12.95C206.63 13.17 206.77 13.36 206.93 13.50C207.10 13.64 207.31 13.75 207.54 13.82C207.76 13.89 207.98 13.93 208.22 13.93C208.50 13.93 208.77 13.90 209.01 13.85C209.24 13.79 209.45 13.71 209.66 13.61C209.87 13.51 210.07 13.38 210.27 13.23C210.45 13.08 210.63 12.91 210.83 12.73L210.92 13.62C210.95 13.75 211.05 13.82 211.19 13.82L211.20 13.82L211.46 13.82L212.38 13.82L212.38 13.54C212.38 13.38 212.28 13.30 212.10 13.29ZM210.80 12.26C210.63 12.43 210.48 12.60 210.31 12.74C210.14 12.88 209.96 13.01 209.76 13.12C209.57 13.23 209.36 13.30 209.13 13.36C208.91 13.41 208.66 13.44 208.39 13.44C208.21 13.44 208.03 13.43 207.86 13.37C207.69 13.31 207.55 13.24 207.42 13.13C207.30 13.02 207.19 12.88 207.12 12.71C207.03 12.54 207.00 12.35 207.00 12.11C207.00 11.86 207.07 11.63 207.23 11.44C207.38 11.24 207.61 11.09 207.91 10.95C208.22 10.81 208.61 10.70 209.09 10.61C209.57 10.53 210.14 10.47 210.80 10.46ZM221.59 4.89C221.65 4.94 221.72 4.98 221.79 5.01C221.86 5.04 221.94 5.07 222.03 5.07C222.11 5.07 222.19 5.04 222.26 5.01C222.33 4.98 222.40 4.94 222.46 4.89C222.52 4.83 222.57 4.76 222.60 4.69C222.63 4.62 222.66 4.54 222.66 4.45C222.66 4.37 222.63 4.30 222.60 4.21C222.57 4.14 222.52 4.07 222.46 4.02C222.40 3.96 222.33 3.91 222.26 3.88C222.19 3.85 222.11 3.84 222.03 3.84C221.94 3.84 221.86 3.85 221.79 3.88C221.72 3.91 221.65 3.96 221.59 4.02C221.54 4.07 221.49 4.14 221.47 4.21C221.44 4.28 221.41 4.37 221.41 4.45C221.41 4.54 221.44 4.62 221.47 4.69C221.49 4.76 221.54 4.83 221.59 4.89ZM223.09 13.29L223.02 13.29L222.91 13.29C222.87 13.29 222.80 13.27 222.70 13.27C222.60 13.27 222.49 13.26 222.36 13.26L222.36 6.85L221.69 6.85L220.68 6.85L220.68 7.13C220.68 7.28 220.78 7.36 220.96 7.38L221.03 7.38C221.06 7.38 221.10 7.39 221.14 7.39L221.35 7.39C221.45 7.39 221.56 7.41 221.69 7.41L221.69 13.26C221.54 13.26 221.40 13.29 221.28 13.29L221.05 13.29L220.96 13.29C220.78 13.30 220.68 13.38 220.68 13.54L220.68 13.82L221.69 13.82L222.36 13.82L223.37 13.82L223.37 13.54C223.37 13.38 223.27 13.30 223.09 13.29ZM238.87 13.29L238.80 13.29L238.69 13.29C238.64 13.29 238.57 13.27 238.48 13.27C238.38 13.27 238.27 13.26 238.14 13.26L238.14 9.37C238.14 8.96 238.08 8.60 237.99 8.27C237.89 7.95 237.75 7.67 237.55 7.45C237.36 7.22 237.12 7.06 236.82 6.93C236.53 6.80 236.19 6.75 235.82 6.75C235.30 6.75 234.82 6.87 234.40 7.11C233.98 7.36 233.62 7.67 233.30 8.08L233.24 7.03C233.23 6.92 233.16 6.86 233.03 6.86L232.67 6.86L231.66 6.86L231.66 7.13C231.66 7.28 231.74 7.36 231.92 7.38L232.01 7.38C232.04 7.38 232.06 7.39 232.11 7.39L232.32 7.39C232.41 7.39 232.54 7.41 232.67 7.41L232.67 13.26C232.50 13.26 232.36 13.29 232.25 13.29L232.02 13.29L231.92 13.29C231.74 13.30 231.66 13.38 231.66 13.54L231.66 13.82L232.67 13.82L233.32 13.82L234.33 13.82L234.33 13.54C234.33 13.38 234.25 13.30 234.07 13.29L233.98 13.29L233.88 13.29C233.84 13.29 233.77 13.27 233.67 13.27C233.58 13.27 233.45 13.26 233.32 13.26L233.32 8.60C233.63 8.19 233.98 7.87 234.37 7.63C234.77 7.39 235.19 7.28 235.65 7.28C236.26 7.28 236.73 7.46 237.02 7.83C237.31 8.20 237.47 8.71 237.47 9.37L237.47 13.82L238.14 13.82L239.15 13.82L239.15 13.54C239.15 13.38 239.05 13.30 238.87 13.29Z"></path></g></svg>